<svg xmlns="http://www.w3.org/2000/svg" version="1.1" xmlns:xlink="http://www.w3.org/1999/xlink" xmlns:svgjs="http://svgjs.dev/svgjs" width="1500" height="553" viewBox="0 0 1500 553"><g transform="matrix(1,0,0,1,-0.9084522071641459,0.7796010625752388)"><svg viewBox="0 0 396 146" data-background-color="#3a3d53" preserveAspectRatio="xMidYMid meet" height="553" width="1500" xmlns="http://www.w3.org/2000/svg" xmlns:xlink="http://www.w3.org/1999/xlink"><g id="tight-bounds" transform="matrix(1,0,0,1,0.24008861730862918,-0.20582595865458586)"><svg viewBox="0 0 395.52 146.41160637463494" height="146.41160637463494" width="395.52"><g><svg viewBox="0 0 395.52 146.41160637463494" height="146.41160637463494" width="395.52"><g><svg viewBox="0 0 395.52 146.41160637463494" height="146.41160637463494" width="395.52"><g id="textblocktransform"><svg viewBox="0 0 395.52 146.41160637463494" height="146.41160637463494" width="395.52" id="textblock"><g><svg viewBox="0 0 395.52 146.41160637463494" height="146.41160637463494" width="395.52"><path d="M394.594 31.402C392.735 16.205 387.435 11.98 387.435 11.98 371.165-3.673 350.86-0.299 332.619 1.95 300.414 2.041 268.339 5.384 236.208 7.178 168.767 7.451 100.749 2.953 33.643 14.047 27.339 17.451-6.54 14.716 1.121 33.348 3.129 41.098 10.456 49.7 10.232 56.813 11.236 58.059 12.631 55.202 13.226 56.995 15.309 61.828 18.711 59.548 21.501 62.405 17.614 70.034 20.403 76.387 23.062 83.044 18.377 84.776 12.371 83.955 9.675 89.7 9.396 93.864 7.89 93.074 6.235 92.891 5.026 92.77 2.59 93.226 2.999 94.533 4.394 99.001-1.594 101.584 2.162 105.961-0.422 110.703 3.948 114.806 3.353 119.943 3.278 120.976 3.687 121.858 4.338 122.101 7.22 123.408 3.018 125.961 3.464 128.727 33.029 147.633 65.104 134.563 95.394 143.256 103.259 137.177 97.346 145.414 100.489 144.137 102.943 142.648 104.728 148.818 107.499 145.323 107.927 144.32 107.276 141.949 108.8 142.405 109.6 142.648 110.307 142.587 110.418 141.189 110.586 139.092 109.117 140.399 108.726 139.305 112.947 133.773 111.906 146.934 115.866 146.387 115.68 144.776 114.528 142.466 116.889 142.77 119.232 140.46 119.306 138.545 121.389 143.742 121.463 144.867 121.835 145.657 122.43 146.204 128.938 140.551 135.409 148.21 142.233 145.657 146.417 142.861 150.433 147.177 154.672 146.113 156.16 145.262 157.666 143.742 159.098 146.295 176.632 146.842 195.319 144.563 211.943 146.387 256.364 142.982 303.836 147.785 350.674 143.286 361.719 141.554 373.192 139.092 383.958 137.116 383.958 137.116 392.679 131.706 392.679 107.39S394.538 86.113 394.817 66.752C395.096 47.39 396.398 46.6 394.538 31.402Z" opacity="1" fill="#ffffff" data-fill-palette-color="tertiary"></path><g transform="matrix(1,0,0,1,55.76832,26.230666666666668)"><svg width="283.98335999999995" viewBox="3.7 -39.25 119.84 39.65" height="93.9502730413016" data-palette-color="#3a3d53"><path d="M27.45-34.85Q28.5-34.85 29.23-34.15 29.95-33.45 29.95-32.45L29.95-32.45Q29.95-31.35 29.15-30.75L29.15-30.75Q27.6-29.5 25.65-28.18 23.7-26.85 21.9-25.7L21.9-25.7 19.6-24.2Q14.35-20.8 13.95-20.55L13.95-20.55Q13.2-20.05 12.35-19.53 11.5-19 10.75-18.5L10.75-18.5 13.7-15.9Q17.55-12.55 18.8-11.5L18.8-11.5Q21.3-9.35 23.1-7.93 24.9-6.5 28-4.2L28-4.2Q28.95-3.45 28.95-2.3L28.95-2.3Q28.95-1.25 28.23-0.58 27.5 0.1 26.5 0.1L26.5 0.1Q25.6 0.1 25-0.35L25-0.35 24.05-1.1Q18.55-5.55 16.05-7.75L16.05-7.75Q11.8-11.35 8.85-14.25L8.85-14.25 8.8-9.85Q8.7-5.05 8.7-2.45L8.7-2.45Q8.7-1.3 8-0.63 7.3 0.05 6.15 0.05L6.15 0.05Q4.9 0.05 4.3-0.58 3.7-1.2 3.7-2.55L3.7-2.55Q3.7-4.7 3.8-9.6L3.8-9.6Q3.95-13.65 3.95-18.55L3.95-18.55 3.9-25.75Q3.85-27.95 3.85-32.8L3.85-32.8Q3.85-33.7 4.55-34.35 5.25-35 6.35-35L6.35-35Q7.5-35 8.18-34.35 8.85-33.7 8.85-32.65L8.85-32.65 8.9-22.35Q13.35-25.35 16.55-27.65L16.55-27.65 18.45-29Q22.85-32.05 25.9-34.35L25.9-34.35Q26.65-34.85 27.45-34.85L27.45-34.85ZM47-25.8Q50.2-25.8 52.1-23.75 54-21.7 54-18.65L54-18.65Q54-15.75 52.2-14.1 50.4-12.45 47.55-12.45L47.55-12.45Q46.3-12.45 45.77-12.83 45.25-13.2 45.25-14.15L45.25-14.15Q45.25-15 45.62-15.38 46-15.75 46.75-15.8L46.75-15.8Q49.9-16.05 49.9-18.75L49.9-18.75Q49.9-20.05 49.17-20.95 48.45-21.85 46.95-21.85L46.95-21.85Q45.2-21.85 43.82-20.2 42.45-18.55 41.62-16.2 40.8-13.85 40.65-11.75L40.65-11.75Q40.3-8 40.3-3.35L40.3-3.35Q40.3-1.1 39.8-0.35 39.3 0.4 37.9 0.4L37.9 0.4Q36.55 0.4 35.97-0.18 35.4-0.75 35.4-2.1L35.4-2.1Q35.35-3.05 35.35-11.15L35.35-11.15Q35.35-15.2 34.8-20.5L34.8-20.5 34.5-24.35Q34.45-25.3 35.07-25.85 35.7-26.4 36.85-26.4L36.85-26.4Q38.85-26.4 38.95-24.6L38.95-24.6 39.3-19.5Q40.2-22.35 42.2-24.08 44.2-25.8 47-25.8L47-25.8ZM65-27.55Q63.45-27.55 62.45-28.58 61.45-29.6 61.45-31.15L61.45-31.15Q61.45-32.65 62.47-33.65 63.5-34.65 65.09-34.65L65.09-34.65Q66.7-34.65 67.67-33.7 68.65-32.75 68.65-31.2L68.65-31.2Q68.65-29.65 67.62-28.6 66.59-27.55 65-27.55L65-27.55ZM64.3-0.3Q63.15-0.3 62.45-0.85 61.75-1.4 61.75-2.4L61.75-2.4 62.25-22.7Q62.25-23.7 62.95-24.28 63.65-24.85 64.75-24.85L64.75-24.85Q65.84-24.85 66.57-24.25 67.3-23.65 67.3-22.65L67.3-22.65 66.8-2.35Q66.75-1.35 66.07-0.83 65.4-0.3 64.3-0.3L64.3-0.3ZM84.79 0.3Q81.34 0.3 78.84-1.35 76.34-3 75.09-5.65L75.09-5.65Q74.74-6.35 74.74-6.75L74.74-6.75Q74.79-7.6 75.69-8.28 76.59-8.95 77.49-8.85L77.49-8.85Q77.99-8.75 78.27-8.47 78.54-8.2 79.04-7.55L79.04-7.55Q80.39-5.7 81.62-4.73 82.84-3.75 84.84-3.75L84.84-3.75Q86.69-3.75 87.94-4.65 89.19-5.55 89.19-6.9L89.19-6.9Q89.19-8.35 87.89-9.13 86.59-9.9 83.79-10.9L83.79-10.9Q81.19-11.75 79.54-12.58 77.89-13.4 76.72-14.88 75.54-16.35 75.54-18.65L75.54-18.65Q75.54-20.75 76.72-22.48 77.89-24.2 79.99-25.18 82.09-26.15 84.74-26.15L84.74-26.15Q87.44-26.15 89.49-25.13 91.54-24.1 92.64-22.4 93.74-20.7 93.74-18.7L93.74-18.7Q93.74-17.55 93.22-17.03 92.69-16.5 91.49-16.5L91.49-16.5Q90.29-16.5 89.89-16.93 89.49-17.35 89.44-18.05L89.44-18.05Q89.24-20 88.07-21.03 86.89-22.05 84.74-22.05L84.74-22.05Q82.49-22.05 81.47-21.03 80.44-20 80.44-18.75L80.44-18.75Q80.44-17.25 81.77-16.45 83.09-15.65 85.99-14.65L85.99-14.65Q88.59-13.75 90.22-12.95 91.84-12.15 92.99-10.73 94.14-9.3 94.14-7.05L94.14-7.05Q94.14-4.65 92.82-3 91.49-1.35 89.34-0.53 87.19 0.3 84.79 0.3L84.79 0.3ZM122.34-19Q122.99-16.25 123.27-12.08 123.54-7.9 123.54-1.95L123.54-1.95Q123.54-1.15 122.82-0.6 122.09-0.05 121.04-0.05L121.04-0.05Q119.99-0.05 119.29-0.6 118.59-1.15 118.59-2.2L118.59-2.2Q118.59-14.8 117.59-18.35L117.59-18.35Q117.09-20.15 116.09-20.93 115.09-21.7 113.54-21.7L113.54-21.7Q110.09-21.7 108.27-18.93 106.44-16.15 106.44-12.35L106.44-12.35 106.44-1.9Q106.44-1.1 105.74-0.6 105.04-0.1 103.99-0.1L103.99-0.1Q102.89-0.1 102.19-0.63 101.49-1.15 101.49-1.95L101.49-1.95Q101.49-12.05 101.74-21.3L101.74-21.3Q101.94-28.45 102.54-37.1L102.54-37.1Q102.69-39.25 104.99-39.25L104.99-39.25Q106.09-39.25 106.72-38.78 107.34-38.3 107.29-37.4L107.29-37.4 106.79-27.8 106.49-22.3Q107.69-23.85 109.64-24.85 111.59-25.85 114.34-25.85L114.34-25.85Q117.64-25.85 119.54-24.18 121.44-22.5 122.34-19L122.34-19Z" opacity="1" transform="matrix(1,0,0,1,0,0)" fill="#3a3d53" class="wordmark-text-0" data-fill-palette-color="quaternary" id="text-0"></path></svg></g></svg></g></svg></g></svg></g><g></g></svg></g><defs></defs></svg><rect width="395.52" height="146.41160637463494" fill="none" stroke="none" visibility="hidden"></rect></g></svg></g></svg>